<?xml version="1.0" standalone="no"?>
<!DOCTYPE svg PUBLIC "-//W3C//DTD SVG 20010904//EN"
 "http://www.w3.org/TR/2001/REC-SVG-20010904/DTD/svg10.dtd">
<svg version="1.0" xmlns="http://www.w3.org/2000/svg"
 width="250.000000pt" height="250.000000pt" viewBox="0 0 250.000000 250.000000"
 preserveAspectRatio="xMidYMid meet">

<g transform="translate(0.000000,250.000000) scale(0.100000,-0.100000)"
fill="#000000" stroke="none">
<path d="M1115 2346 c-93 -42 -131 -155 -84 -253 42 -87 164 -121 254 -70 118
67 113 257 -8 316 -49 24 -117 27 -162 7z m123 -134 c6 -9 12 -25 12 -36 0
-52 -75 -76 -104 -34 -22 31 -20 45 9 74 27 27 59 26 83 -4z"/>
<path d="M1536 1768 c-15 -35 -46 -112 -68 -173 -22 -60 -60 -149 -84 -196
-24 -48 -57 -137 -73 -199 -17 -62 -33 -115 -35 -118 -17 -16 -15 35 3 93 12
37 21 69 21 71 0 2 -24 -14 -52 -36 -29 -22 -58 -40 -65 -40 -6 0 -36 23 -67
51 -40 36 -61 65 -76 105 -11 30 -30 74 -42 97 -21 40 -22 41 -28 17 -6 -23
-7 -22 -14 13 -4 20 -4 42 0 48 9 16 -27 130 -43 136 -8 3 -33 0 -58 -7 -101
-28 -117 -111 -42 -219 29 -43 30 -45 12 -55 -42 -24 -75 -65 -75 -93 0 -54
50 -135 137 -220 46 -45 83 -90 83 -100 0 -10 -6 -47 -14 -82 l-13 -64 47 -61
c46 -61 205 -206 225 -206 7 0 7 41 1 130 -5 72 -7 132 -4 135 8 9 38 -6 32
-16 -3 -5 0 -71 6 -146 9 -107 15 -140 28 -150 27 -20 35 -15 29 16 -3 16 -9
81 -13 146 l-7 117 111 -56 c62 -31 115 -56 119 -56 4 0 -46 30 -111 67 l-117
67 6 50 c3 28 10 81 16 118 l10 66 122 -58 c170 -81 197 -84 47 -5 -182 96
-167 73 -136 206 35 143 101 357 165 529 53 143 62 181 17 78z m-569 -520 c20
-18 23 -31 23 -90 0 -37 -4 -68 -8 -68 -16 0 -44 77 -47 129 -1 28 0 51 3 51
3 0 16 -10 29 -22z m294 -269 c-6 -35 -11 -83 -11 -107 0 -36 -3 -43 -17 -40
-20 4 -21 47 -2 148 14 77 18 85 30 73 7 -7 7 -31 0 -74z"/>
<path d="M868 548 l-47 -140 52 6 c62 7 152 -6 204 -31 21 -9 78 -56 127 -103
49 -47 84 -76 79 -65 -6 11 -18 67 -27 125 -9 58 -21 114 -25 125 -5 12 -44
42 -88 68 -44 26 -109 68 -144 95 -36 27 -70 51 -75 55 -6 3 -30 -55 -56 -135z"/>
<path d="M1275 422 c4 -20 18 -83 31 -140 29 -127 29 -130 2 -106 l-23 19 19
-22 c10 -13 23 -20 27 -17 5 3 9 -3 9 -13 1 -10 14 -33 29 -51 l28 -33 -28
109 c-15 59 -33 145 -40 189 -11 69 -17 83 -37 92 -22 11 -23 10 -17 -27z"/>
<path d="M808 353 c-9 -10 -24 -34 -33 -53 l-18 -35 40 36 c50 45 101 63 165
57 29 -3 44 -2 36 3 -7 5 -49 9 -94 9 -65 0 -84 -4 -96 -17z"/>
</g>
</svg>
