<svg width="39" height="40" viewBox="0 0 39 40" fill="none" xmlns="http://www.w3.org/2000/svg">
<path d="M1.33984 33.75V29.292C1.33984 28.264 1.59042 27.3333 2.09157 26.5C2.59272 25.6667 3.29017 25.0417 4.18392 24.625C6.07932 23.7363 7.85317 23.0907 9.50547 22.688C11.1578 22.2847 12.8504 22.083 14.5833 22.083C16.3441 22.083 18.0439 22.2847 19.6825 22.688C21.3205 23.0907 23.0875 23.7363 24.9836 24.625C25.8773 25.0417 26.5816 25.6667 27.0964 26.5C27.6106 27.3333 27.8676 28.264 27.8676 29.292V33.75H1.33984ZM30.7117 33.75V29.208C30.7117 27.6247 30.3123 26.2497 29.5134 25.083C28.7146 23.9163 27.6379 22.9303 26.2833 22.125C27.9356 22.347 29.493 22.6663 30.9555 23.083C32.418 23.4997 33.6504 23.972 34.6527 24.5C35.6004 25.0553 36.3381 25.736 36.8659 26.542C37.3944 27.3473 37.6586 28.25 37.6586 29.25V33.75H30.7117ZM14.5833 19.833C12.7691 19.833 11.2592 19.215 10.0534 17.979C8.84832 16.743 8.24577 15.1807 8.24577 13.292C8.24577 11.4307 8.84832 9.88199 10.0534 8.64599C11.2592 7.40999 12.7691 6.79199 14.5833 6.79199C16.4254 6.79199 17.949 7.40999 19.1541 8.64599C20.3592 9.88199 20.9617 11.4307 20.9617 13.292C20.9617 15.1807 20.3592 16.743 19.1541 17.979C17.949 19.215 16.4254 19.833 14.5833 19.833ZM30.1433 13.292C30.1433 15.1807 29.5404 16.743 28.3347 17.979C27.1296 19.215 25.6199 19.833 23.8058 19.833C23.4808 19.833 23.1285 19.8053 22.7489 19.75C22.3699 19.6947 22.018 19.6113 21.693 19.5C22.3703 18.722 22.8916 17.8053 23.2569 16.75C23.6228 15.6947 23.8058 14.542 23.8058 13.292C23.8058 12.042 23.6228 10.91 23.2569 9.89599C22.8916 8.88199 22.3703 7.94433 21.693 7.08299C22.018 6.99966 22.3631 6.93033 22.7284 6.87499C23.0944 6.81966 23.4535 6.79199 23.8058 6.79199C25.6199 6.79199 27.1296 7.40999 28.3347 8.64599C29.5404 9.88199 30.1433 11.4307 30.1433 13.292Z" fill="black"/>
</svg>
