<svg width="39" height="40" viewBox="0 0 39 40" fill="none" xmlns="http://www.w3.org/2000/svg">
<path d="M2.07187 23.1667C1.36771 21.9722 0.846354 20.7708 0.507812 19.5625C0.169271 18.3542 0 17.1667 0 16C0 12.9444 1.04271 10.3472 3.12812 8.20833C5.21354 6.06944 7.74583 5 10.725 5C12.4312 5 14.0495 5.36111 15.5797 6.08333C17.1099 6.80556 18.4167 7.79167 19.5 9.04167C20.5833 7.79167 21.8901 6.80556 23.4203 6.08333C24.9505 5.36111 26.5688 5 28.275 5C31.2542 5 33.7865 6.06944 35.8719 8.20833C37.9573 10.3472 39 12.9444 39 16C39 17.1667 38.8307 18.3472 38.4922 19.5417C38.1536 20.7361 37.6323 21.9306 36.9281 23.125C36.6573 22.7917 36.3526 22.5069 36.0141 22.2708C35.6755 22.0347 35.3167 21.8333 34.9375 21.6667C35.4792 20.6944 35.8854 19.7361 36.1562 18.7917C36.4271 17.8472 36.5625 16.9167 36.5625 16C36.5625 13.6389 35.7568 11.6319 34.1453 9.97917C32.5339 8.32639 30.5771 7.5 28.275 7.5C26.7854 7.5 25.3161 7.95139 23.8672 8.85417C22.4182 9.75694 20.9625 11.125 19.5 12.9583C18.0375 11.125 16.5818 9.75694 15.1328 8.85417C13.6839 7.95139 12.2146 7.5 10.725 7.5C8.42292 7.5 6.46615 8.32639 4.85469 9.97917C3.24323 11.6319 2.4375 13.6389 2.4375 16C2.4375 16.9167 2.57292 17.8472 2.84375 18.7917C3.11458 19.7361 3.52083 20.6944 4.0625 21.6667C3.68333 21.8333 3.32448 22.0417 2.98594 22.2917C2.6474 22.5417 2.34271 22.8333 2.07187 23.1667ZM0 36.6667V34.4583C0 33.375 0.56875 32.5 1.70625 31.8333C2.84375 31.1667 4.30625 30.8333 6.09375 30.8333C6.44583 30.8333 6.77083 30.8403 7.06875 30.8542C7.36667 30.8681 7.66458 30.9028 7.9625 30.9583C7.74583 31.4306 7.58333 31.9097 7.475 32.3958C7.36667 32.8819 7.3125 33.4028 7.3125 33.9583V36.6667H0ZM9.75 36.6667V33.9583C9.75 32.1528 10.6505 30.6944 12.4516 29.5833C14.2526 28.4722 16.6021 27.9167 19.5 27.9167C22.425 27.9167 24.7812 28.4722 26.5688 29.5833C28.3563 30.6944 29.25 32.1528 29.25 33.9583V36.6667H9.75ZM31.6875 36.6667V33.9583C31.6875 33.4028 31.6401 32.8819 31.5453 32.3958C31.4505 31.9097 31.2948 31.4306 31.0781 30.9583C31.376 30.9028 31.674 30.8681 31.9719 30.8542C32.2698 30.8403 32.5812 30.8333 32.9062 30.8333C34.7208 30.8333 36.1901 31.1667 37.3141 31.8333C38.438 32.5 39 33.375 39 34.4583V36.6667H31.6875ZM6.09375 29.5833C5.30833 29.5833 4.63802 29.2986 4.08281 28.7292C3.5276 28.1597 3.25 27.4722 3.25 26.6667C3.25 25.8611 3.5276 25.1736 4.08281 24.6042C4.63802 24.0347 5.30833 23.75 6.09375 23.75C6.87917 23.75 7.54948 24.0347 8.10469 24.6042C8.6599 25.1736 8.9375 25.8611 8.9375 26.6667C8.9375 27.4722 8.6599 28.1597 8.10469 28.7292C7.54948 29.2986 6.87917 29.5833 6.09375 29.5833ZM32.9062 29.5833C32.1208 29.5833 31.4505 29.2986 30.8953 28.7292C30.3401 28.1597 30.0625 27.4722 30.0625 26.6667C30.0625 25.8611 30.3401 25.1736 30.8953 24.6042C31.4505 24.0347 32.1208 23.75 32.9062 23.75C33.6917 23.75 34.362 24.0347 34.9172 24.6042C35.4724 25.1736 35.75 25.8611 35.75 26.6667C35.75 27.4722 35.4724 28.1597 34.9172 28.7292C34.362 29.2986 33.6917 29.5833 32.9062 29.5833ZM19.5 26.6667C18.1458 26.6667 16.9948 26.1806 16.0469 25.2083C15.099 24.2361 14.625 23.0556 14.625 21.6667C14.625 20.25 15.099 19.0625 16.0469 18.1042C16.9948 17.1458 18.1458 16.6667 19.5 16.6667C20.8813 16.6667 22.0391 17.1458 22.9734 18.1042C23.9078 19.0625 24.375 20.25 24.375 21.6667C24.375 23.0556 23.9078 24.2361 22.9734 25.2083C22.0391 26.1806 20.8813 26.6667 19.5 26.6667Z" fill="black"/>
</svg>
