<svg width="39" height="40" viewBox="0 0 39 40" fill="none" xmlns="http://www.w3.org/2000/svg">
<path d="M9.62884 36.208C8.43739 36.208 7.42177 35.7777 6.58197 34.917C5.74217 34.0557 5.32227 33.014 5.32227 31.792V16.583C5.32227 15.889 5.47144 15.2363 5.76979 14.625C6.06749 14.0137 6.50072 13.486 7.06947 13.042L16.9004 5.45801C17.3066 5.20801 17.7265 4.99967 18.1601 4.83301C18.5936 4.66634 19.0405 4.58301 19.5007 4.58301C19.9609 4.58301 20.4078 4.66634 20.8413 4.83301C21.2749 4.99967 21.6948 5.20801 22.101 5.45801L31.932 13.042C32.528 13.486 32.9749 14.0137 33.2726 14.625C33.5703 15.2363 33.7191 15.889 33.7191 16.583V31.792C33.7191 33.014 33.2927 34.0557 32.4399 34.917C31.5865 35.7777 30.564 36.208 29.3726 36.208H23.0351V23.042H15.9663V36.208H9.62884Z" fill="black"/>
</svg>
